<svg width="50.000000" height="50.000000" viewBox="0 0 50 50" fill="none" xmlns="http://www.w3.org/2000/svg" xmlns:xlink="http://www.w3.org/1999/xlink">
    <desc>
        Created with Pixso.
    </desc>
    <defs/>
    <path id="airplanemode_active" d="M16.25 50L16.25 46.25L21.25 42.5L21.25 28.75L0 35L0 30L21.25 17.5L21.25 3.75C21.25 2.7 21.61 1.82 22.34 1.09C23.07 0.36 23.95 0 25 0C26.04 0 26.92 0.36 27.65 1.09C28.38 1.82 28.75 2.7 28.75 3.75L28.75 17.5L50 30L50 35L28.75 28.75L28.75 42.5L33.75 46.25L33.75 50L25 47.5L16.25 50Z" fill="#0B3C32" fill-opacity="1.000000" fill-rule="nonzero"/>
</svg>
